HIERARCHY
ROOT Hips
{
	OFFSET 0.000000 0.000000 0.000000
	CHANNELS 6 Xposition Yposition Zposition Zrotation Yrotation Xrotation 
	JOINT LHipJoint
	{
		OFFSET 0.000000 0.000000 0.000000
		CHANNELS 3 Zrotation Yrotation Xrotation
		JOINT LeftUpLeg
		{
			OFFSET 1.363060 -1.794630 0.839290
			CHANNELS 3 Zrotation Yrotation Xrotation
			JOINT LeftLeg
			{
				OFFSET 2.448110 -6.726130 0.000000
				CHANNELS 3 Zrotation Yrotation Xrotation
				JOINT LeftFoot
				{
					OFFSET 2.562200 -7.039590 0.000000
					CHANNELS 3 Zrotation Yrotation Xrotation
					JOINT LeftToeBase
					{
						OFFSET 0.157640 -0.433110 2.322550
						CHANNELS 3 Zrotation Yrotation Xrotation
						End Site
						{
							OFFSET 0.000000 0.000000 0.000000
						}
					}
				}
			}
		}
	}
	JOINT RHipJoint
	{
		OFFSET 0.000000 0.000000 0.000000
		CHANNELS 3 Zrotation Yrotation Xrotation
		JOINT RightUpLeg
		{
			OFFSET -1.305520 -1.794630 0.839290
			CHANNELS 3 Zrotation Yrotation Xrotation
			JOINT RightLeg
			{
				OFFSET -2.542530 -6.985550 0.000000
				CHANNELS 3 Zrotation Yrotation Xrotation
				JOINT RightFoot
				{
					OFFSET -2.568260 -7.056230 0.000000
					CHANNELS 3 Zrotation Yrotation Xrotation
					JOINT RightToeBase
					{
						OFFSET -0.164730 -0.452590 2.363150
						CHANNELS 3 Zrotation Yrotation Xrotation
						End Site
						{
							OFFSET 0.000000 0.000000 0.000000
						}
					}
				}
			}
		}
	}
}
MOTION
Frames: 21
Frame Time: 0.008333
5.511753 16.370715 -2.165474 -178.830163 38.715433 -160.809639 -9.760533 -0.502660 -0.293293 -17.219083 0.109326 -49.662694 -1.826936 2.180272 40.806243 2.792320 11.791476 -14.861184 -1.220400 -0.000000 -6.844100 10.623602 -2.014060 -3.402245 -4.634027 -11.716146 -10.401425 0.247774 -3.043520 42.398108 0.043199 19.410528 25.649498 10.508200 -0.000000 -99.774700
5.592517 16.334441 -2.267145 -179.222893 38.311753 -161.392220 -9.663497 -0.462081 -0.445039 -17.615428 -0.070087 -49.171669 -1.795795 2.256930 42.255372 2.862661 11.966118 -16.107218 -1.560500 -0.000000 -6.723101 10.811356 -1.917998 -3.515308 -5.273705 -12.087095 -10.525323 0.104088 -3.144527 44.089095 -0.145440 18.392835 27.164187 10.464300 0.000001 -97.420601
5.669853 16.306422 -2.370695 -179.597088 37.890673 -161.960738 -9.578946 -0.426642 -0.582959 -17.981130 -0.273424 -48.506182 -1.777959 2.300231 43.390758 2.943571 12.169103 -17.384438 -1.920600 0.000000 -6.670000 10.975742 -1.815498 -3.642184 -5.863739 -12.470716 -10.636021 -0.022745 -3.240249 45.704230 -0.345052 17.086699 28.651854 10.192700 0.000000 -94.355400
5.743470 16.286575 -2.477014 -179.929214 37.457493 -162.490840 -9.511822 -0.397635 -0.700366 -18.291012 -0.501803 -47.699812 -1.769141 2.314709 44.228919 3.030715 12.394720 -18.623893 -2.284400 0.000000 -6.668499 11.111686 -1.712514 -3.775914 -6.377605 -12.844477 -10.745473 -0.131740 -3.330525 47.235123 -0.548327 15.528802 30.011126 9.675900 -0.000000 -90.696799
5.813248 16.274515 -2.586761 179.799696 37.018100 -162.960468 -9.465788 -0.376004 -0.792385 -18.525759 -0.756704 -46.791440 -1.764594 2.305644 44.798811 3.119477 12.637496 -19.765318 -2.635500 -0.000000 -6.698700 11.215768 -1.614619 -3.910572 -6.792491 -13.187947 -10.869569 -0.224890 -3.415937 48.677394 -0.747580 13.764961 31.142745 8.919600 0.000000 -86.636700
5.879325 16.269741 -2.700210 179.601281 36.577000 -163.353337 -9.442499 -0.361572 -0.855269 -18.674312 -1.038942 -45.820179 -1.760009 2.278287 45.137039 3.205153 12.890238 -20.762316 -2.959000 0.000000 -6.740399 11.287243 -1.527075 -4.040007 -7.091050 -13.484345 -11.025511 -0.306327 -3.497267 50.028927 -0.935896 11.849542 31.963329 7.954700 -0.000000 -82.440700
5.942002 16.271619 -2.817342 179.480459 36.138891 -163.656974 -9.442158 -0.353933 -0.888036 -18.732571 -1.347530 -44.824519 -1.752211 2.237836 45.283602 3.283800 13.145416 -21.587091 -3.243600 0.000000 -6.776300 11.326655 -1.453036 -4.159601 -7.261389 -13.719088 -11.232859 -0.381140 -3.575351 51.291087 -1.107539 9.842207 32.409096 6.832000 0.000000 -78.331700
6.001940 16.279472 -2.937587 179.431053 35.703133 -163.872765 -9.461485 -0.350624 -0.890304 -18.709136 -1.679585 -43.831556 -1.739596 2.188069 45.276159 3.352475 13.394149 -22.230334 -3.482300 0.000000 -6.794900 11.338863 -1.394816 -4.263394 -7.304645 -13.884637 -11.503735 -0.453658 -3.650515 52.462323 -1.259160 7.802383 32.448891 5.614800 0.000000 -74.641700
6.059812 16.292646 -3.060351 179.444556 35.272050 -163.998666 -9.497391 -0.350147 -0.865205 -18.613973 -2.028799 -42.867588 -1.722424 2.132573 45.147844 3.409408 13.626040 -22.702188 -3.672801 0.000000 -6.790800 11.327421 -1.351680 -4.348921 -7.223898 -13.974527 -11.854159 -0.527190 -3.723263 53.548218 -1.388173 5.785227 32.062400 4.367000 0.000000 -71.429100
6.116311 16.310566 -3.184827 179.506851 34.844014 -164.043004 -9.544266 -0.349826 -0.816693 -18.466439 -2.387275 -41.943818 -1.702388 2.073098 44.922295 3.454224 13.831379 -23.026757 -3.817600 0.000001 -6.763600 11.298663 -1.321717 -4.413580 -7.034646 -13.989071 -12.291158 -0.602756 -3.793656 54.549409 -1.494122 3.836373 31.256994 3.148200 0.000000 -68.797900
6.172284 16.332721 -3.310022 179.598201 34.418304 -164.018875 -9.595807 -0.347265 -0.750372 -18.287690 -2.744991 -41.062698 -1.682618 2.010330 44.612692 3.487412 14.000358 -23.237470 -3.922500 -0.000000 -6.716300 11.259119 -1.301292 -4.456601 -6.757675 -13.932229 -12.817562 -0.679478 -3.861684 55.466161 -1.577882 1.990174 30.056679 2.006800 0.000000 -66.742500
6.228303 16.358756 -3.435203 179.703518 33.993963 -163.938591 -9.646131 -0.340656 -0.672233 -18.098597 -3.091620 -40.218116 -1.666535 1.943760 44.222385 3.510279 14.125443 -23.371348 -3.995900 0.000000 -6.653300 11.214520 -1.286263 -4.478081 -6.416476 -13.809723 -13.431467 -0.754649 -3.926913 56.295732 -1.641719 0.268964 28.503883 0.978600 -0.000000 -65.196300
6.284971 16.388349 -3.559587 179.804618 33.571923 -163.818097 -9.689893 -0.328758 -0.588392 -17.917159 -3.417131 -39.396771 -1.657757 1.872130 43.745842 3.524296 14.201027 -23.462482 -4.046200 0.000000 -6.579301 11.169880 -1.271976 -4.479208 -6.035198 -13.629215 -14.127358 -0.824591 -3.988795 57.034979 -1.689111 -1.315165 26.656377 0.086300 0.000000 -64.025500
6.342473 16.421326 -3.682855 179.893194 33.154067 -163.667615 -9.724008 -0.311496 -0.504287 -17.755435 -3.712364 -38.582597 -1.658946 1.793645 43.171297 3.530968 14.224831 -23.537245 -4.080800 0.000000 -6.498899 11.127705 -1.254390 -4.461309 -5.633468 -13.396017 -14.896800 -0.885209 -4.046015 57.677386 -1.724955 -2.761448 24.591722 -0.661100 -0.000000 -63.134900
6.400951 16.457531 -3.804793 179.962523 32.743789 -163.497313 -9.747319 -0.289457 -0.424042 -17.618249 -3.969809 -37.758457 -1.671834 1.706506 42.484660 3.531288 14.196485 -23.611620 -4.104400 0.000001 -6.417300 11.088822 -1.230576 -4.426143 -5.224974 -13.115603 -15.730919 -0.933258 -4.097566 58.220572 -1.753888 -4.072513 22.384854 -1.263500 0.000001 -62.282000
6.460203 16.496837 -3.925550 -179.985523 32.345513 -163.311833 -9.761220 -0.264145 -0.350565 -17.503777 -4.183924 -36.909715 -1.696582 1.609135 41.671735 3.525746 14.118646 -23.688286 -4.118600 -0.000000 -6.340700 11.051584 -1.198784 -4.375226 -4.816323 -12.789800 -16.619793 -0.966588 -4.141961 58.660992 -1.780877 -5.257512 20.118547 -1.730300 0.000001 -61.328300
6.519937 16.539068 -4.045472 -179.945738 31.963491 -163.113211 -9.768870 -0.237433 -0.285410 -17.404425 -4.351902 -36.024969 -1.731958 1.500516 40.722173 3.514282 13.996215 -23.758996 -4.121800 -0.000000 -6.277001 11.012834 -1.158370 -4.309421 -4.407779 -12.416840 -17.551584 -0.984539 -4.177166 58.991752 -1.810974 -6.331641 17.881599 -2.079200 -0.000000 -60.308500
6.579836 16.583931 -4.164958 -179.910409 31.601146 -162.901925 -9.774896 -0.211371 -0.228443 -17.306670 -4.473292 -35.099098 -1.775485 1.380491 39.632515 3.496066 13.834487 -23.806522 -4.110400 0.000000 -6.236200 10.968602 -1.110677 -4.230142 -3.993247 -11.996251 -18.516039 -0.987899 -4.202303 59.214202 -1.845992 -7.301599 15.724767 -2.325900 0.000000 -59.071800
6.639401 16.631078 -4.284559 -179.867363 31.259387 -162.675411 -9.784624 -0.187855 -0.178938 -17.196492 -4.550328 -34.130597 -1.823511 1.249746 38.406982 3.470077 13.640931 -23.808479 -4.079400 0.000000 -6.229599 10.914471 -1.057559 -4.138056 -3.565120 -11.524360 -19.499702 -0.978136 -4.215718 59.322240 -1.887682 -8.178721 13.705531 -2.490800 0.000000 -57.739300
6.698223 16.679981 -4.404766 -179.805506 30.936586 -162.431145 -9.803250 -0.168384 -0.134973 -17.058732 -4.588198 -33.124692 -1.871939 1.109994 37.059192 3.435026 13.422238 -23.742563 -4.024100 -0.000000 -6.269100 10.846576 -1.001971 -4.034417 -3.113687 -11.000438 -20.491184 -0.956836 -4.216884 59.315806 -1.934405 -8.962651 11.839022 -2.587901 0.000000 -56.259000
6.755993 16.730025 -4.525943 -179.716984 30.628346 -162.167919 -9.834821 -0.153673 -0.094712 -16.882374 -4.593960 -32.089807 -1.916790 0.963866 35.610895 3.389904 13.185207 -23.590466 -3.941300 -0.000000 -6.366599 10.762280 -0.946374 -3.920097 -2.633278 -10.423738 -21.477167 -0.925511 -4.205071 59.190582 -1.984375 -9.654377 10.140047 -2.631699 0.000000 -54.781300
